<mxfile host="app.diagrams.net" agent="Mozilla/5.0 (Macintosh; Intel Mac OS X 10_15_7) AppleWebKit/537.36 (KHTML, like Gecko) Chrome/137.0.0.0 Safari/537.36" version="27.1.6">
  <diagram name="Page-1" id="90a13364-a465-7bf4-72fc-28e22215d7a0">
    <mxGraphModel dx="1892" dy="1288" grid="1" gridSize="10" guides="1" tooltips="1" connect="1" arrows="1" fold="1" page="1" pageScale="1.5" pageWidth="1169" pageHeight="826" background="none" math="0" shadow="0">
      <root>
        <mxCell id="0" style=";html=1;" />
        <mxCell id="1" style=";html=1;" parent="0" />
        <mxCell id="3a17f1ce550125da-13" style="edgeStyle=elbowEdgeStyle;rounded=0;html=1;startArrow=none;startFill=0;jettySize=auto;orthogonalLoop=1;fontSize=18;elbow=vertical;strokeColor=default;endArrow=none;align=center;verticalAlign=middle;fontFamily=Helvetica;fontColor=default;labelBackgroundColor=default;curved=1;fontStyle=1" parent="1" source="3a17f1ce550125da-2" target="3a17f1ce550125da-4" edge="1">
          <mxGeometry relative="1" as="geometry" />
        </mxCell>
        <mxCell id="wzNAJELc3Rrf7rPGQdhp-30" style="edgeStyle=orthogonalEdgeStyle;rounded=0;orthogonalLoop=1;jettySize=auto;html=1;exitX=0.5;exitY=0;exitDx=0;exitDy=0;entryX=0;entryY=0.5;entryDx=0;entryDy=0;endArrow=none;startFill=0;fontStyle=1" edge="1" parent="1" source="3a17f1ce550125da-2" target="wzNAJELc3Rrf7rPGQdhp-21">
          <mxGeometry relative="1" as="geometry" />
        </mxCell>
        <mxCell id="wzNAJELc3Rrf7rPGQdhp-31" style="edgeStyle=orthogonalEdgeStyle;rounded=0;orthogonalLoop=1;jettySize=auto;html=1;exitX=0.75;exitY=0;exitDx=0;exitDy=0;entryX=0;entryY=0.5;entryDx=0;entryDy=0;endArrow=none;startFill=0;fontStyle=1" edge="1" parent="1" source="3a17f1ce550125da-2" target="wzNAJELc3Rrf7rPGQdhp-25">
          <mxGeometry relative="1" as="geometry" />
        </mxCell>
        <mxCell id="wzNAJELc3Rrf7rPGQdhp-33" style="edgeStyle=orthogonalEdgeStyle;rounded=0;orthogonalLoop=1;jettySize=auto;html=1;exitX=0.75;exitY=0;exitDx=0;exitDy=0;entryX=0;entryY=0.5;entryDx=0;entryDy=0;endArrow=none;startFill=0;fontStyle=1" edge="1" parent="1" source="3a17f1ce550125da-2" target="wzNAJELc3Rrf7rPGQdhp-32">
          <mxGeometry relative="1" as="geometry">
            <Array as="points">
              <mxPoint x="910" y="454" />
              <mxPoint x="910" y="340" />
              <mxPoint x="1005" y="340" />
            </Array>
          </mxGeometry>
        </mxCell>
        <mxCell id="3a17f1ce550125da-2" value="Hospital Information System" style="whiteSpace=wrap;html=1;shadow=1;fontSize=18;fillColor=light-dark(#E51400,#FFFFFF);strokeColor=#B20000;rounded=1;align=center;verticalAlign=middle;fontFamily=Helvetica;fontStyle=1;fontColor=#ffffff;" parent="1" vertex="1">
          <mxGeometry x="787" y="454" width="193" height="236" as="geometry" />
        </mxCell>
        <mxCell id="3a17f1ce550125da-4" value="VISIT" style="whiteSpace=wrap;html=1;shadow=1;fontSize=18;fillColor=#0050ef;strokeColor=#001DBC;rounded=1;align=center;verticalAlign=middle;fontFamily=Helvetica;fontColor=#ffffff;fontStyle=1;" parent="1" vertex="1">
          <mxGeometry x="1018.5" y="554" width="120" height="66" as="geometry" />
        </mxCell>
        <mxCell id="3a17f1ce550125da-20" style="rounded=0;html=1;startArrow=none;startFill=0;jettySize=auto;orthogonalLoop=1;fontSize=18;elbow=vertical;strokeColor=default;align=center;verticalAlign=middle;fontFamily=Helvetica;fontColor=default;labelBackgroundColor=default;endArrow=none;entryX=0.01;entryY=0.347;entryDx=0;entryDy=0;entryPerimeter=0;edgeStyle=orthogonalEdgeStyle;curved=0;fontStyle=1" parent="1" source="3a17f1ce550125da-8" target="3a17f1ce550125da-2" edge="1">
          <mxGeometry relative="1" as="geometry">
            <Array as="points">
              <mxPoint x="760" y="480" />
              <mxPoint x="760" y="536" />
            </Array>
          </mxGeometry>
        </mxCell>
        <mxCell id="3a17f1ce550125da-8" value="LABORATORY" style="whiteSpace=wrap;html=1;shadow=1;fontSize=18;fillColor=light-dark(#E51400,#FFFFFF);strokeColor=#B20000;rounded=1;align=center;verticalAlign=middle;fontFamily=Helvetica;fontColor=#ffffff;fontStyle=1;" parent="1" vertex="1">
          <mxGeometry x="463" y="445" width="197" height="60" as="geometry" />
        </mxCell>
        <mxCell id="3a17f1ce550125da-21" style="edgeStyle=orthogonalEdgeStyle;rounded=0;html=1;startArrow=none;startFill=0;jettySize=auto;orthogonalLoop=1;fontSize=18;elbow=vertical;strokeColor=default;align=center;verticalAlign=middle;fontFamily=Helvetica;fontColor=default;labelBackgroundColor=default;endArrow=none;curved=0;fontStyle=1" parent="1" source="3a17f1ce550125da-9" target="3a17f1ce550125da-2" edge="1">
          <mxGeometry relative="1" as="geometry">
            <Array as="points">
              <mxPoint x="740" y="550" />
              <mxPoint x="740" y="572" />
            </Array>
          </mxGeometry>
        </mxCell>
        <mxCell id="3a17f1ce550125da-9" value="RADIOLOGY" style="whiteSpace=wrap;html=1;shadow=1;fontSize=18;fillColor=light-dark(#E51400,#FFFFFF);strokeColor=#B20000;rounded=1;align=center;verticalAlign=middle;fontFamily=Helvetica;fontColor=#ffffff;fontStyle=1;" parent="1" vertex="1">
          <mxGeometry x="440" y="520" width="187" height="60" as="geometry" />
        </mxCell>
        <mxCell id="3a17f1ce550125da-10" value="&lt;span id=&quot;docs-internal-guid-645cfd7d-7fff-0ffe-12d1-b18ff2b2fb76&quot;&gt;&lt;span style=&quot;font-size: 16pt; background-color: transparent; font-variant-numeric: normal; font-variant-east-asian: normal; font-variant-alternates: normal; font-variant-position: normal; font-variant-emoji: normal; vertical-align: baseline; white-space-collapse: preserve;&quot;&gt;OPHTHALMOLOGY&lt;/span&gt;&lt;/span&gt;" style="whiteSpace=wrap;html=1;shadow=1;fontSize=18;fillColor=light-dark(#E51400,#FFFFFF);strokeColor=#B20000;rounded=1;align=center;verticalAlign=middle;fontFamily=Helvetica;fontColor=#ffffff;fontStyle=1;" parent="1" vertex="1">
          <mxGeometry x="752" y="735" width="249.75" height="56" as="geometry" />
        </mxCell>
        <mxCell id="wzNAJELc3Rrf7rPGQdhp-2" value="OPD" style="rounded=1;whiteSpace=wrap;fontSize=18;fontStyle=1;shadow=1;strokeColor=#B20000;align=center;verticalAlign=middle;fontFamily=Helvetica;fontColor=#ffffff;fillColor=light-dark(#E51400,#FFFFFF);" vertex="1" parent="1">
          <mxGeometry x="1230" y="450" width="140" height="50" as="geometry" />
        </mxCell>
        <mxCell id="wzNAJELc3Rrf7rPGQdhp-6" value="IPD" style="rounded=1;whiteSpace=wrap;html=1;fontSize=18;fontStyle=1;shadow=1;strokeColor=#B20000;align=center;verticalAlign=middle;fontFamily=Helvetica;fontColor=#ffffff;fillColor=light-dark(#E51400,#FFFFFF);" vertex="1" parent="1">
          <mxGeometry x="1230" y="524" width="140" height="60" as="geometry" />
        </mxCell>
        <mxCell id="wzNAJELc3Rrf7rPGQdhp-7" value="EMERGENCY" style="rounded=1;whiteSpace=wrap;html=1;fontSize=18;fontStyle=1;shadow=1;strokeColor=#B20000;align=center;verticalAlign=middle;fontFamily=Helvetica;fontColor=#ffffff;fillColor=light-dark(#E51400,#FFFFFF);" vertex="1" parent="1">
          <mxGeometry x="1230" y="680" width="140" height="50" as="geometry" />
        </mxCell>
        <mxCell id="wzNAJELc3Rrf7rPGQdhp-8" value="DAYCARE" style="rounded=1;whiteSpace=wrap;html=1;fontSize=18;fontStyle=1;shadow=1;strokeColor=#B20000;align=center;verticalAlign=middle;fontFamily=Helvetica;fontColor=#ffffff;fillColor=light-dark(#E51400,#FFFFFF);" vertex="1" parent="1">
          <mxGeometry x="1230" y="604" width="140" height="54" as="geometry" />
        </mxCell>
        <mxCell id="wzNAJELc3Rrf7rPGQdhp-9" value="" style="endArrow=none;html=1;rounded=0;entryX=0;entryY=0.5;entryDx=0;entryDy=0;exitX=0.995;exitY=0.425;exitDx=0;exitDy=0;edgeStyle=orthogonalEdgeStyle;strokeColor=default;align=center;verticalAlign=middle;fontFamily=Helvetica;fontSize=18;fontColor=default;labelBackgroundColor=default;elbow=vertical;startArrow=none;startFill=0;curved=0;exitPerimeter=0;fontStyle=1" edge="1" parent="1" source="3a17f1ce550125da-4" target="wzNAJELc3Rrf7rPGQdhp-6">
          <mxGeometry width="50" height="50" relative="1" as="geometry">
            <mxPoint x="990" y="700" as="sourcePoint" />
            <mxPoint x="1040" y="650" as="targetPoint" />
            <Array as="points">
              <mxPoint x="1210" y="582" />
              <mxPoint x="1210" y="554" />
            </Array>
          </mxGeometry>
        </mxCell>
        <mxCell id="wzNAJELc3Rrf7rPGQdhp-10" value="" style="html=1;rounded=0;exitX=0;exitY=0.5;exitDx=0;exitDy=0;edgeStyle=orthogonalEdgeStyle;endArrow=none;startFill=0;entryX=1;entryY=0.25;entryDx=0;entryDy=0;strokeColor=default;align=center;verticalAlign=middle;fontFamily=Helvetica;fontSize=18;fontColor=default;labelBackgroundColor=default;elbow=vertical;startArrow=none;curved=0;fontStyle=1" edge="1" parent="1" source="wzNAJELc3Rrf7rPGQdhp-2" target="3a17f1ce550125da-4">
          <mxGeometry width="100" relative="1" as="geometry">
            <mxPoint x="960" y="670" as="sourcePoint" />
            <mxPoint x="1190" y="570" as="targetPoint" />
          </mxGeometry>
        </mxCell>
        <mxCell id="wzNAJELc3Rrf7rPGQdhp-11" value="" style="html=1;rounded=0;exitX=0;exitY=0.5;exitDx=0;exitDy=0;edgeStyle=orthogonalEdgeStyle;endArrow=none;startFill=0;entryX=1.003;entryY=0.606;entryDx=0;entryDy=0;entryPerimeter=0;strokeColor=default;align=center;verticalAlign=middle;fontFamily=Helvetica;fontSize=18;fontColor=default;labelBackgroundColor=default;elbow=vertical;startArrow=none;curved=0;fontStyle=1" edge="1" parent="1" source="wzNAJELc3Rrf7rPGQdhp-8" target="3a17f1ce550125da-4">
          <mxGeometry width="100" relative="1" as="geometry">
            <mxPoint x="1223" y="640" as="sourcePoint" />
            <mxPoint x="1157" y="590" as="targetPoint" />
            <Array as="points">
              <mxPoint x="1210" y="634" />
              <mxPoint x="1210" y="594" />
            </Array>
          </mxGeometry>
        </mxCell>
        <mxCell id="wzNAJELc3Rrf7rPGQdhp-12" value="" style="html=1;rounded=0;exitX=0;exitY=0.5;exitDx=0;exitDy=0;edgeStyle=orthogonalEdgeStyle;endArrow=none;startFill=0;entryX=1;entryY=0.75;entryDx=0;entryDy=0;strokeColor=default;align=center;verticalAlign=middle;fontFamily=Helvetica;fontSize=18;fontColor=default;labelBackgroundColor=default;elbow=vertical;startArrow=none;curved=0;fontStyle=1" edge="1" parent="1" source="wzNAJELc3Rrf7rPGQdhp-7" target="3a17f1ce550125da-4">
          <mxGeometry width="100" relative="1" as="geometry">
            <mxPoint x="1113" y="750" as="sourcePoint" />
            <mxPoint x="1040" y="839" as="targetPoint" />
          </mxGeometry>
        </mxCell>
        <mxCell id="wzNAJELc3Rrf7rPGQdhp-13" value="PHARMACY" style="whiteSpace=wrap;html=1;shadow=1;fontSize=18;fillColor=light-dark(#E51400,#FFFFFF);strokeColor=#B20000;rounded=1;align=center;verticalAlign=middle;fontFamily=Helvetica;fontColor=#ffffff;fontStyle=1;" vertex="1" parent="1">
          <mxGeometry x="410" y="598" width="197" height="60" as="geometry" />
        </mxCell>
        <mxCell id="wzNAJELc3Rrf7rPGQdhp-14" style="edgeStyle=orthogonalEdgeStyle;rounded=0;html=1;startArrow=none;startFill=0;jettySize=auto;orthogonalLoop=1;fontSize=18;elbow=vertical;strokeColor=default;endArrow=none;exitX=1;exitY=0.5;exitDx=0;exitDy=0;align=center;verticalAlign=middle;fontFamily=Helvetica;fontColor=default;labelBackgroundColor=default;entryX=0.006;entryY=0.661;entryDx=0;entryDy=0;entryPerimeter=0;curved=0;fontStyle=1" edge="1" parent="1" source="wzNAJELc3Rrf7rPGQdhp-13" target="3a17f1ce550125da-2">
          <mxGeometry relative="1" as="geometry">
            <mxPoint x="750" y="720" as="sourcePoint" />
            <mxPoint x="770" y="574" as="targetPoint" />
            <Array as="points">
              <mxPoint x="607" y="620" />
              <mxPoint x="740" y="620" />
              <mxPoint x="740" y="600" />
              <mxPoint x="788" y="600" />
            </Array>
          </mxGeometry>
        </mxCell>
        <mxCell id="wzNAJELc3Rrf7rPGQdhp-19" value="EMR/PRESCRIPTION" style="whiteSpace=wrap;html=1;shadow=1;fontSize=18;fillColor=light-dark(#E51400,#FFFFFF);strokeColor=#B20000;rounded=1;align=center;verticalAlign=middle;fontFamily=Helvetica;fontColor=#ffffff;fontStyle=1;" vertex="1" parent="1">
          <mxGeometry x="453" y="675" width="217" height="60" as="geometry" />
        </mxCell>
        <mxCell id="wzNAJELc3Rrf7rPGQdhp-20" style="edgeStyle=orthogonalEdgeStyle;rounded=0;html=1;startArrow=none;startFill=0;jettySize=auto;orthogonalLoop=1;fontSize=18;elbow=vertical;strokeColor=default;endArrow=none;exitX=1;exitY=0.5;exitDx=0;exitDy=0;align=center;verticalAlign=middle;fontFamily=Helvetica;fontColor=default;labelBackgroundColor=default;entryX=0;entryY=0.75;entryDx=0;entryDy=0;curved=0;fontStyle=1" edge="1" parent="1" source="wzNAJELc3Rrf7rPGQdhp-19" target="3a17f1ce550125da-2">
          <mxGeometry relative="1" as="geometry">
            <mxPoint x="730" y="610" as="sourcePoint" />
            <mxPoint x="841" y="646" as="targetPoint" />
            <Array as="points">
              <mxPoint x="760" y="705" />
              <mxPoint x="760" y="640" />
              <mxPoint x="787" y="640" />
            </Array>
          </mxGeometry>
        </mxCell>
        <mxCell id="wzNAJELc3Rrf7rPGQdhp-21" value="APPOINTMENTS" style="whiteSpace=wrap;html=1;shadow=1;fontSize=18;fillColor=#0050ef;strokeColor=#001DBC;rounded=1;align=center;verticalAlign=middle;fontFamily=Helvetica;fontColor=#ffffff;fontStyle=1;" vertex="1" parent="1">
          <mxGeometry x="950" y="240" width="200" height="50" as="geometry" />
        </mxCell>
        <mxCell id="wzNAJELc3Rrf7rPGQdhp-22" value="DIALYSIS" style="whiteSpace=wrap;html=1;shadow=1;fontSize=18;fillColor=light-dark(#E51400,#FFFFFF);strokeColor=#B20000;rounded=1;align=center;verticalAlign=middle;fontFamily=Helvetica;fontColor=#ffffff;fontStyle=1;" vertex="1" parent="1">
          <mxGeometry x="510" y="280" width="185" height="60" as="geometry" />
        </mxCell>
        <mxCell id="wzNAJELc3Rrf7rPGQdhp-23" style="edgeStyle=orthogonalEdgeStyle;rounded=0;html=1;startArrow=none;startFill=0;jettySize=auto;orthogonalLoop=1;fontSize=18;elbow=vertical;strokeColor=default;endArrow=none;exitX=1;exitY=0.5;exitDx=0;exitDy=0;align=center;verticalAlign=middle;fontFamily=Helvetica;fontColor=default;labelBackgroundColor=default;curved=0;entryX=0.12;entryY=0.005;entryDx=0;entryDy=0;entryPerimeter=0;fontStyle=1" edge="1" parent="1" source="wzNAJELc3Rrf7rPGQdhp-22" target="3a17f1ce550125da-2">
          <mxGeometry relative="1" as="geometry">
            <mxPoint x="936.5" y="280" as="sourcePoint" />
            <mxPoint x="993.5" y="301" as="targetPoint" />
            <Array as="points">
              <mxPoint x="860" y="320" />
              <mxPoint x="860" y="455" />
            </Array>
          </mxGeometry>
        </mxCell>
        <mxCell id="wzNAJELc3Rrf7rPGQdhp-24" value="&lt;div style=&quot;&quot;&gt;&lt;span style=&quot;background-color: transparent;&quot;&gt;MRD (Medical Records Department)&lt;/span&gt;&lt;/div&gt;" style="whiteSpace=wrap;html=1;shadow=1;fontSize=18;fillColor=light-dark(#E51400,#FFFFFF);strokeColor=#B20000;rounded=1;align=center;verticalAlign=middle;fontFamily=Helvetica;fontColor=#ffffff;fontStyle=1;" vertex="1" parent="1">
          <mxGeometry x="420" y="360" width="240" height="70" as="geometry" />
        </mxCell>
        <mxCell id="wzNAJELc3Rrf7rPGQdhp-25" value="NURSING" style="whiteSpace=wrap;html=1;shadow=1;fontSize=18;fillColor=#0050ef;strokeColor=#001DBC;rounded=1;align=center;verticalAlign=middle;fontFamily=Helvetica;fontColor=#ffffff;fontStyle=1;" vertex="1" parent="1">
          <mxGeometry x="993.5" y="380" width="170" height="50" as="geometry" />
        </mxCell>
        <mxCell id="wzNAJELc3Rrf7rPGQdhp-32" value="ADVANCE BOOKING" style="whiteSpace=wrap;html=1;shadow=1;fontSize=18;fillColor=#0050ef;strokeColor=#001DBC;rounded=1;align=center;verticalAlign=middle;fontFamily=Helvetica;fontColor=#ffffff;fontStyle=1;" vertex="1" parent="1">
          <mxGeometry x="1005" y="310" width="210" height="50" as="geometry" />
        </mxCell>
        <mxCell id="wzNAJELc3Rrf7rPGQdhp-34" style="edgeStyle=orthogonalEdgeStyle;rounded=0;orthogonalLoop=1;jettySize=auto;html=1;exitX=1;exitY=0.5;exitDx=0;exitDy=0;endArrow=none;startFill=0;entryX=0.302;entryY=0;entryDx=0;entryDy=0;entryPerimeter=0;fontStyle=1" edge="1" parent="1" source="wzNAJELc3Rrf7rPGQdhp-24" target="3a17f1ce550125da-2">
          <mxGeometry relative="1" as="geometry">
            <mxPoint x="845" y="450" as="targetPoint" />
            <Array as="points">
              <mxPoint x="660" y="390" />
              <mxPoint x="830" y="390" />
              <mxPoint x="830" y="454" />
            </Array>
          </mxGeometry>
        </mxCell>
        <mxCell id="wzNAJELc3Rrf7rPGQdhp-35" value="PATIENT HISTORY" style="rounded=1;whiteSpace=wrap;fontSize=18;rotation=-90;fontStyle=1;shadow=1;strokeColor=#B20000;align=center;verticalAlign=middle;fontFamily=Helvetica;fontColor=#ffffff;fillColor=light-dark(#E51400,#FFFFFF);" vertex="1" parent="1">
          <mxGeometry x="555" y="920" width="140" height="50" as="geometry" />
        </mxCell>
        <mxCell id="wzNAJELc3Rrf7rPGQdhp-36" value="ALLERGIES" style="rounded=1;whiteSpace=wrap;fontSize=18;rotation=-90;fontStyle=1;shadow=1;strokeColor=#B20000;align=center;verticalAlign=middle;fontFamily=Helvetica;fontColor=#ffffff;fillColor=light-dark(#E51400,#FFFFFF);" vertex="1" parent="1">
          <mxGeometry x="620.25" y="960" width="140" height="50" as="geometry" />
        </mxCell>
        <mxCell id="wzNAJELc3Rrf7rPGQdhp-37" value="OPTOMETRY" style="rounded=1;whiteSpace=wrap;fontSize=18;rotation=-90;fontStyle=1;shadow=1;strokeColor=#B20000;align=center;verticalAlign=middle;fontFamily=Helvetica;fontColor=#ffffff;fillColor=light-dark(#E51400,#FFFFFF);" vertex="1" parent="1">
          <mxGeometry x="690" y="990" width="140" height="50" as="geometry" />
        </mxCell>
        <mxCell id="wzNAJELc3Rrf7rPGQdhp-38" value="DIAGNOSIS" style="rounded=1;whiteSpace=wrap;fontSize=18;rotation=-90;fontStyle=1;shadow=1;strokeColor=#B20000;align=center;verticalAlign=middle;fontFamily=Helvetica;fontColor=#ffffff;fillColor=light-dark(#E51400,#FFFFFF);" vertex="1" parent="1">
          <mxGeometry x="770" y="1010" width="140" height="50" as="geometry" />
        </mxCell>
        <mxCell id="wzNAJELc3Rrf7rPGQdhp-39" value="EXAMINATIONS" style="rounded=1;whiteSpace=wrap;fontSize=18;rotation=-90;fontStyle=1;shadow=1;strokeColor=#B20000;align=center;verticalAlign=middle;fontFamily=Helvetica;fontColor=#ffffff;fillColor=light-dark(#E51400,#FFFFFF);" vertex="1" parent="1">
          <mxGeometry x="835" y="1040" width="170" height="50" as="geometry" />
        </mxCell>
        <mxCell id="wzNAJELc3Rrf7rPGQdhp-40" value="INVESTIGATIONS" style="rounded=1;whiteSpace=wrap;fontSize=18;rotation=-90;fontStyle=1;shadow=1;strokeColor=#B20000;align=center;verticalAlign=middle;fontFamily=Helvetica;fontColor=#ffffff;fillColor=light-dark(#E51400,#FFFFFF);" vertex="1" parent="1">
          <mxGeometry x="900" y="1020" width="180" height="50" as="geometry" />
        </mxCell>
        <mxCell id="wzNAJELc3Rrf7rPGQdhp-41" style="edgeStyle=orthogonalEdgeStyle;rounded=0;orthogonalLoop=1;jettySize=auto;html=1;exitX=1;exitY=0.5;exitDx=0;exitDy=0;strokeColor=default;align=center;verticalAlign=middle;fontFamily=Helvetica;fontSize=18;fontColor=default;labelBackgroundColor=default;elbow=vertical;startArrow=none;startFill=0;endArrow=none;curved=0;fontStyle=1" edge="1" parent="1" source="wzNAJELc3Rrf7rPGQdhp-35">
          <mxGeometry relative="1" as="geometry">
            <mxPoint x="800" y="791" as="targetPoint" />
            <Array as="points">
              <mxPoint x="625" y="833" />
              <mxPoint x="800" y="833" />
              <mxPoint x="800" y="791" />
            </Array>
          </mxGeometry>
        </mxCell>
        <mxCell id="wzNAJELc3Rrf7rPGQdhp-42" style="edgeStyle=orthogonalEdgeStyle;rounded=0;orthogonalLoop=1;jettySize=auto;html=1;exitX=1;exitY=0.5;exitDx=0;exitDy=0;entryX=0.27;entryY=1.006;entryDx=0;entryDy=0;entryPerimeter=0;strokeColor=default;align=center;verticalAlign=middle;fontFamily=Helvetica;fontSize=18;fontColor=default;labelBackgroundColor=default;elbow=vertical;startArrow=none;startFill=0;endArrow=none;curved=0;fontStyle=1" edge="1" parent="1" source="wzNAJELc3Rrf7rPGQdhp-36" target="3a17f1ce550125da-10">
          <mxGeometry relative="1" as="geometry">
            <Array as="points">
              <mxPoint x="690" y="853" />
              <mxPoint x="820" y="853" />
              <mxPoint x="820" y="791" />
            </Array>
          </mxGeometry>
        </mxCell>
        <mxCell id="wzNAJELc3Rrf7rPGQdhp-43" style="edgeStyle=orthogonalEdgeStyle;rounded=0;orthogonalLoop=1;jettySize=auto;html=1;exitX=1;exitY=0.5;exitDx=0;exitDy=0;strokeColor=default;align=center;verticalAlign=middle;fontFamily=Helvetica;fontSize=18;fontColor=default;labelBackgroundColor=default;elbow=vertical;startArrow=none;startFill=0;endArrow=none;curved=0;fontStyle=1;entryX=0.351;entryY=1.006;entryDx=0;entryDy=0;entryPerimeter=0;" edge="1" parent="1" source="wzNAJELc3Rrf7rPGQdhp-37" target="3a17f1ce550125da-10">
          <mxGeometry relative="1" as="geometry">
            <mxPoint x="850" y="820" as="targetPoint" />
            <Array as="points">
              <mxPoint x="760" y="875" />
              <mxPoint x="840" y="875" />
            </Array>
          </mxGeometry>
        </mxCell>
        <mxCell id="wzNAJELc3Rrf7rPGQdhp-45" style="edgeStyle=orthogonalEdgeStyle;rounded=0;orthogonalLoop=1;jettySize=auto;html=1;exitX=1;exitY=0.5;exitDx=0;exitDy=0;entryX=0.314;entryY=1;entryDx=0;entryDy=0;entryPerimeter=0;strokeColor=default;align=center;verticalAlign=middle;fontFamily=Helvetica;fontSize=18;fontColor=default;labelBackgroundColor=default;elbow=vertical;startArrow=none;startFill=0;endArrow=none;curved=0;fontStyle=1" edge="1" parent="1" source="wzNAJELc3Rrf7rPGQdhp-38" target="3a17f1ce550125da-10">
          <mxGeometry relative="1" as="geometry">
            <mxPoint x="840" y="800" as="targetPoint" />
            <Array as="points">
              <mxPoint x="840" y="975" />
              <mxPoint x="839" y="890" />
              <mxPoint x="870" y="890" />
              <mxPoint x="870" y="791" />
            </Array>
          </mxGeometry>
        </mxCell>
        <mxCell id="wzNAJELc3Rrf7rPGQdhp-46" style="edgeStyle=orthogonalEdgeStyle;rounded=0;orthogonalLoop=1;jettySize=auto;html=1;exitX=1;exitY=0.5;exitDx=0;exitDy=0;entryX=0.523;entryY=1.001;entryDx=0;entryDy=0;entryPerimeter=0;endArrow=none;startFill=0;fontStyle=1" edge="1" parent="1" source="wzNAJELc3Rrf7rPGQdhp-39" target="3a17f1ce550125da-10">
          <mxGeometry relative="1" as="geometry">
            <mxPoint x="884" y="800" as="targetPoint" />
            <Array as="points">
              <mxPoint x="915" y="890" />
              <mxPoint x="895" y="890" />
              <mxPoint x="895" y="791" />
            </Array>
          </mxGeometry>
        </mxCell>
        <mxCell id="wzNAJELc3Rrf7rPGQdhp-47" style="edgeStyle=orthogonalEdgeStyle;rounded=0;orthogonalLoop=1;jettySize=auto;html=1;exitX=1;exitY=0.5;exitDx=0;exitDy=0;strokeColor=default;align=center;verticalAlign=middle;fontFamily=Helvetica;fontSize=18;fontColor=default;labelBackgroundColor=default;elbow=vertical;startArrow=none;startFill=0;endArrow=none;curved=0;fontStyle=1" edge="1" parent="1" source="wzNAJELc3Rrf7rPGQdhp-40">
          <mxGeometry relative="1" as="geometry">
            <mxPoint x="923" y="790" as="targetPoint" />
            <Array as="points">
              <mxPoint x="990" y="860" />
              <mxPoint x="923" y="860" />
              <mxPoint x="923" y="791" />
            </Array>
          </mxGeometry>
        </mxCell>
        <mxCell id="wzNAJELc3Rrf7rPGQdhp-50" style="edgeStyle=orthogonalEdgeStyle;rounded=0;orthogonalLoop=1;jettySize=auto;html=1;exitX=1;exitY=0.5;exitDx=0;exitDy=0;entryX=0.75;entryY=1;entryDx=0;entryDy=0;strokeColor=default;align=center;verticalAlign=middle;fontFamily=Helvetica;fontSize=18;fontColor=default;labelBackgroundColor=default;elbow=vertical;startArrow=none;startFill=0;endArrow=none;curved=0;fontStyle=1" edge="1" parent="1" source="wzNAJELc3Rrf7rPGQdhp-48" target="3a17f1ce550125da-10">
          <mxGeometry relative="1" as="geometry">
            <Array as="points">
              <mxPoint x="1060" y="935" />
              <mxPoint x="1060" y="840" />
              <mxPoint x="950" y="840" />
              <mxPoint x="950" y="791" />
            </Array>
          </mxGeometry>
        </mxCell>
        <mxCell id="wzNAJELc3Rrf7rPGQdhp-48" value="ADVICE" style="rounded=1;whiteSpace=wrap;fontSize=18;rotation=-90;fontStyle=1;shadow=1;strokeColor=#B20000;align=center;verticalAlign=middle;fontFamily=Helvetica;fontColor=#ffffff;fillColor=light-dark(#E51400,#FFFFFF);" vertex="1" parent="1">
          <mxGeometry x="993.5" y="980" width="140" height="50" as="geometry" />
        </mxCell>
        <mxCell id="wzNAJELc3Rrf7rPGQdhp-51" value="PRE / INTRA OP" style="rounded=1;whiteSpace=wrap;fontSize=18;rotation=-90;fontStyle=1;shadow=1;strokeColor=#B20000;align=center;verticalAlign=middle;fontFamily=Helvetica;fontColor=#ffffff;fillColor=light-dark(#E51400,#FFFFFF);" vertex="1" parent="1">
          <mxGeometry x="1041.5" y="946.75" width="173.5" height="50" as="geometry" />
        </mxCell>
        <mxCell id="wzNAJELc3Rrf7rPGQdhp-52" style="edgeStyle=orthogonalEdgeStyle;rounded=0;orthogonalLoop=1;jettySize=auto;html=1;exitX=1;exitY=0.5;exitDx=0;exitDy=0;strokeColor=default;align=center;verticalAlign=middle;fontFamily=Helvetica;fontSize=18;fontColor=default;labelBackgroundColor=default;elbow=vertical;startArrow=none;startFill=0;endArrow=none;curved=0;entryX=0.885;entryY=1.001;entryDx=0;entryDy=0;entryPerimeter=0;fontStyle=1" edge="1" parent="1" source="wzNAJELc3Rrf7rPGQdhp-51" target="3a17f1ce550125da-10">
          <mxGeometry relative="1" as="geometry">
            <mxPoint x="978" y="790" as="targetPoint" />
            <Array as="points">
              <mxPoint x="1130" y="885" />
              <mxPoint x="1130" y="820" />
              <mxPoint x="981" y="820" />
            </Array>
          </mxGeometry>
        </mxCell>
      </root>
    </mxGraphModel>
  </diagram>
</mxfile>
